<svg viewBox="0 0 23 23" xmlns="http://www.w3.org/2000/svg">
<g clip-path="url(#clip0)">
<rect width="22.3531" height="22.3531" transform="translate(0 0.132812)" fill="#F3F3F3"/>
<path d="M22.3531 11.3094C22.3531 5.13672 17.3492 0.132812 11.1765 0.132812C5.00391 0.132812 0 5.13672 0 11.3094C0 16.8878 4.08708 21.5117 9.43021 22.3501V14.5401H6.59242V11.3094H9.43021V8.84703C9.43021 6.04591 11.0988 4.49865 13.6518 4.49865C14.8742 4.49865 16.1536 4.71694 16.1536 4.71694V7.46742H14.7443C13.356 7.46742 12.9229 8.32902 12.9229 9.21376V11.3094H16.0226L15.5271 14.5401H12.9229V22.3501C18.266 21.5117 22.3531 16.8878 22.3531 11.3094Z" fill="#24201D"/>
</g>
<defs>
<clipPath id="clip0">
<rect width="22.3531" height="22.3531" fill="white" transform="translate(0 0.132812)"/>
</clipPath>
</defs>
</svg>
