<svg viewBox="0 0 23 23" xmlns="http://www.w3.org/2000/svg">
<g clip-path="url(#clip0)">
<rect width="22.3531" height="22.3531" transform="translate(0.566528 0.132812)"/>
<path d="M11.7431 2.14546C14.7293 2.14546 15.0829 2.15856 16.2574 2.21095C17.3488 2.25898 17.9382 2.44234 18.3311 2.59515C18.8507 2.79597 19.2261 3.04046 19.6147 3.42902C20.0076 3.82195 20.2477 4.19304 20.4486 4.71258C20.6014 5.1055 20.7847 5.69926 20.8328 6.78635C20.8851 7.96513 20.8982 8.31876 20.8982 11.3006C20.8982 14.2869 20.8851 14.6405 20.8328 15.8149C20.7847 16.9064 20.6014 17.4958 20.4486 17.8887C20.2477 18.4082 20.0032 18.7837 19.6147 19.1722C19.2218 19.5652 18.8507 19.8053 18.3311 20.0061C17.9382 20.1589 17.3444 20.3423 16.2574 20.3903C15.0786 20.4427 14.7249 20.4558 11.7431 20.4558C8.75684 20.4558 8.40321 20.4427 7.2288 20.3903C6.13734 20.3423 5.54795 20.1589 5.15503 20.0061C4.63549 19.8053 4.26003 19.5608 3.87147 19.1722C3.47854 18.7793 3.23842 18.4082 3.03759 17.8887C2.88479 17.4958 2.70142 16.902 2.6534 15.8149C2.60101 14.6361 2.58791 14.2825 2.58791 11.3006C2.58791 8.3144 2.60101 7.96076 2.6534 6.78635C2.70142 5.69489 2.88479 5.1055 3.03759 4.71258C3.23842 4.19304 3.48291 3.81758 3.87147 3.42902C4.26439 3.0361 4.63549 2.79597 5.15503 2.59515C5.54795 2.44234 6.14171 2.25898 7.2288 2.21095C8.40321 2.15856 8.75684 2.14546 11.7431 2.14546ZM11.7431 0.132812C8.70882 0.132812 8.32899 0.14591 7.13712 0.1983C5.94961 0.25069 5.1332 0.442787 4.42593 0.717835C3.6881 1.00598 3.06379 1.38581 2.44384 2.01012C1.81952 2.63007 1.4397 3.25439 1.15155 3.98785C0.876503 4.69948 0.684406 5.51153 0.632016 6.69903C0.579626 7.89527 0.566528 8.2751 0.566528 11.3094C0.566528 14.3436 0.579626 14.7234 0.632016 15.9153C0.684406 17.1028 0.876503 17.9192 1.15155 18.6265C1.4397 19.3643 1.81952 19.9886 2.44384 20.6086C3.06379 21.2285 3.6881 21.6127 4.42156 21.8965C5.1332 22.1716 5.94524 22.3637 7.13275 22.4161C8.32463 22.4684 8.70445 22.4815 11.7387 22.4815C14.773 22.4815 15.1528 22.4684 16.3447 22.4161C17.5322 22.3637 18.3486 22.1716 19.0559 21.8965C19.7893 21.6127 20.4136 21.2285 21.0336 20.6086C21.6535 19.9886 22.0377 19.3643 22.3215 18.6309C22.5966 17.9192 22.7887 17.1072 22.841 15.9197C22.8934 14.7278 22.9065 14.348 22.9065 11.3137C22.9065 8.27947 22.8934 7.89964 22.841 6.70777C22.7887 5.52026 22.5966 4.70385 22.3215 3.99658C22.0465 3.25439 21.6666 2.63007 21.0423 2.01012C20.4224 1.39017 19.7981 1.00598 19.0646 0.722201C18.353 0.447153 17.5409 0.255056 16.3534 0.202666C15.1572 0.14591 14.7773 0.132812 11.7431 0.132812Z"/>
<path d="M11.743 5.56836C8.57343 5.56836 6.00195 8.13984 6.00195 11.3094C6.00195 14.479 8.57343 17.0505 11.743 17.0505C14.9126 17.0505 17.4841 14.479 17.4841 11.3094C17.4841 8.13984 14.9126 5.56836 11.743 5.56836ZM11.743 15.0335C9.68672 15.0335 8.01897 13.3657 8.01897 11.3094C8.01897 9.25313 9.68672 7.58538 11.743 7.58538C13.7993 7.58538 15.4671 9.25313 15.4671 11.3094C15.4671 13.3657 13.7993 15.0335 11.743 15.0335Z"/>
<path d="M19.0515 5.34129C19.0515 6.08348 18.449 6.6816 17.7112 6.6816C16.969 6.6816 16.3708 6.07912 16.3708 5.34129C16.3708 4.5991 16.9733 4.00098 17.7112 4.00098C18.449 4.00098 19.0515 4.60346 19.0515 5.34129Z" />
</g>
<defs>
<clipPath id="clip0">
<rect width="22.3531" height="22.3531" transform="translate(0.566528 0.132812)"/>
</clipPath>
</defs>
</svg>
