<svg viewBox="0 0 23 23" xmlns="http://www.w3.org/2000/svg">
<g clip-path="url(#clip0)">
<rect width="22.3531" height="22.3531" transform="translate(0.133057 0.132812)" fill="#F3F3F3"/>
<path d="M20.8315 0.132812H1.78334C0.870883 0.132812 0.133057 0.853176 0.133057 1.74381V20.8706C0.133057 21.7612 0.870883 22.4859 1.78334 22.4859H20.8315C21.744 22.4859 22.4862 21.7612 22.4862 20.8749V1.74381C22.4862 0.853176 21.744 0.132812 20.8315 0.132812ZM6.76477 19.181H3.44673V8.51086H6.76477V19.181ZM5.10575 7.05703C4.04048 7.05703 3.18041 6.19696 3.18041 5.13606C3.18041 4.07517 4.04048 3.2151 5.10575 3.2151C6.16665 3.2151 7.02672 4.07517 7.02672 5.13606C7.02672 6.1926 6.16665 7.05703 5.10575 7.05703ZM19.1812 19.181H15.8675V13.9944C15.8675 12.7588 15.8457 11.1653 14.143 11.1653C12.4185 11.1653 12.1566 12.5143 12.1566 13.907V19.181H8.84727V8.51086H12.0256V9.96905H12.0693C12.5102 9.13081 13.5929 8.24454 15.2039 8.24454C18.5613 8.24454 19.1812 10.4537 19.1812 13.3264V19.181Z" fill="#24201D"/>
</g>
<defs>
<clipPath id="clip0">
<rect width="22.3531" height="22.3531" fill="white" transform="translate(0.133057 0.132812)"/>
</clipPath>
</defs>
</svg>
